{
  "accessors": [
    {
      "bufferView": 0,
      "componentType": 5126,
      "type": "VEC3",
      "count": 358,
      "min": [-4, -6, 0],
      "max": [4, 5, 9]
    },
    {
      "bufferView": 0,
      "componentType": 5126,
      "type": "VEC3",
      "byteOffset": 12,
      "count": 358
    },
    {
      "bufferView": 0,
      "componentType": 5126,
      "type": "VEC4",
      "byteOffset": 24,
      "count": 358
    },
    {
      "bufferView": 1,
      "componentType": 5125,
      "type": "SCALAR",
      "count": 846
    },
    {
      "bufferView": 2,
      "componentType": 5126,
      "type": "VEC3",
      "count": 232,
      "min": [-2, -4, 3],
      "max": [3, 4, 7]
    },
    {
      "bufferView": 2,
      "componentType": 5126,
      "type": "VEC3",
      "byteOffset": 12,
      "count": 232
    },
    {
      "bufferView": 2,
      "componentType": 5126,
      "type": "VEC4",
      "byteOffset": 24,
      "count": 232
    },
    {
      "bufferView": 3,
      "componentType": 5125,
      "type": "SCALAR",
      "count": 528
    }
  ],
  "asset": {
    "generator": "goxel",
    "version": "2.0"
  },
  "bufferViews": [
    {
      "buffer": 0,
      "byteLength": 14320,
      "byteStride": 40
    },
    {
      "buffer": 1,
      "byteLength": 3384
    },
    {
      "buffer": 2,
      "byteLength": 9280,
      "byteStride": 40
    },
    {
      "buffer": 3,
      "byteLength": 2112
    }
  ],
  "buffers": [
    {
      "uri": "data:application/octet-stream;base64,",
      "byteLength": 14320
    },
    {
      "uri": "data:application/octet-stream;base64,",
      "byteLength": 3384
    },
    {
      "uri": "data:application/octet-stream;base64,",
      "byteLength": 9280
    },
    {
      "uri": "data:application/octet-stream;base64,",
      "byteLength": 2112
    }
  ],
  "meshes": [
    {
      "primitives": [
        {
          "indices": 3,
          "material": 0,
          "attributes": {
            "POSITION": 0,
            "NORMAL": 1,
            "COLOR_0": 2
          }
        }
      ]
    },
    {
      "primitives": [
        {
          "indices": 7,
          "material": 1,
          "attributes": {
            "POSITION": 4,
            "NORMAL": 5,
            "COLOR_0": 6
          }
        }
      ]
    }
  ],
  "materials": [
    {
      "name": "Metal",
      "pbrMetallicRoughness": {
        "metallicFactor": 0.200000003,
        "roughnessFactor": 0.5
      }
    },
    {
      "name": "Glass",
      "pbrMetallicRoughness": {
        "metallicFactor": -0,
        "roughnessFactor": 0.400000006,
        "baseColorFactor": [1, 1, 1, 0.899999976]
      }
    }
  ],
  "nodes": [
    {
      "children": [ 1, 2 ],
      "matrix": [1, 0, 0, 0, 0, 0, -1, 0, 0, 1, 0, 0, 0, 0, 0, 1]
    },
    {
      "mesh": 0,
      "name": "Metal"
    },
    {
      "mesh": 1,
      "name": "Glass"
    }
  ],
  "scenes": [
    {
      "nodes": [ 0 ]
    }
  ]
}
