{
  "accessors": [
    {
      "bufferView": 0,
      "componentType": 5126,
      "type": "VEC3",
      "count": 648,
      "min": [-10, -1, 0],
      "max": [10, 1, 28]
    },
    {
      "bufferView": 0,
      "componentType": 5126,
      "type": "VEC3",
      "byteOffset": 12,
      "count": 648
    },
    {
      "bufferView": 0,
      "componentType": 5126,
      "type": "VEC4",
      "byteOffset": 24,
      "count": 648
    },
    {
      "bufferView": 1,
      "componentType": 5125,
      "type": "SCALAR",
      "count": 2316
    },
    {
      "bufferView": 2,
      "componentType": 5126,
      "type": "VEC3",
      "count": 748,
      "min": [-7, -1, 0],
      "max": [7, 1, 23]
    },
    {
      "bufferView": 2,
      "componentType": 5126,
      "type": "VEC3",
      "byteOffset": 12,
      "count": 748
    },
    {
      "bufferView": 2,
      "componentType": 5126,
      "type": "VEC4",
      "byteOffset": 24,
      "count": 748
    },
    {
      "bufferView": 3,
      "componentType": 5125,
      "type": "SCALAR",
      "count": 2220
    },
    {
      "bufferView": 4,
      "componentType": 5126,
      "type": "VEC3",
      "count": 138,
      "min": [-3, 0, 10],
      "max": [3, 1, 19]
    },
    {
      "bufferView": 4,
      "componentType": 5126,
      "type": "VEC3",
      "byteOffset": 12,
      "count": 138
    },
    {
      "bufferView": 4,
      "componentType": 5126,
      "type": "VEC4",
      "byteOffset": 24,
      "count": 138
    },
    {
      "bufferView": 5,
      "componentType": 5125,
      "type": "SCALAR",
      "count": 390
    }
  ],
  "asset": {
    "generator": "goxel",
    "version": "2.0"
  },
  "bufferViews": [
    {
      "buffer": 0,
      "byteLength": 25920,
      "byteStride": 40
    },
    {
      "buffer": 1,
      "byteLength": 9264
    },
    {
      "buffer": 2,
      "byteLength": 29920,
      "byteStride": 40
    },
    {
      "buffer": 3,
      "byteLength": 8880
    },
    {
      "buffer": 4,
      "byteLength": 5520,
      "byteStride": 40
    },
    {
      "buffer": 5,
      "byteLength": 1560
    }
  ],
  "buffers": [
    {
      "uri": "data:application/octet-stream;base64,",
      "byteLength": 25920
    },
    {
      "uri": "data:application/octet-stream;base64,",
      "byteLength": 9264
    },
    {
      "uri": "data:application/octet-stream;base64,",
      "byteLength": 29920
    },
    {
      "uri": "data:application/octet-stream;base64,",
      "byteLength": 8880
    },
    {
      "uri": "data:application/octet-stream;base64,",
      "byteLength": 5520
    },
    {
      "uri": "data:application/octet-stream;base64,",
      "byteLength": 1560
    }
  ],
  "meshes": [
    {
      "primitives": [
        {
          "indices": 3,
          "material": 0,
          "attributes": {
            "POSITION": 0,
            "NORMAL": 1,
            "COLOR_0": 2
          }
        }
      ]
    },
    {
      "primitives": [
        {
          "indices": 7,
          "material": 0,
          "attributes": {
            "POSITION": 4,
            "NORMAL": 5,
            "COLOR_0": 6
          }
        }
      ]
    },
    {
      "primitives": [
        {
          "indices": 11,
          "material": 1,
          "attributes": {
            "POSITION": 8,
            "NORMAL": 9,
            "COLOR_0": 10
          }
        }
      ]
    }
  ],
  "materials": [
    {
      "name": "Metal",
      "pbrMetallicRoughness": {
        "metallicFactor": 0.200000003,
        "roughnessFactor": 0.5
      }
    },
    {
      "name": "Glass",
      "pbrMetallicRoughness": {
        "metallicFactor": 0.200000003,
        "roughnessFactor": 0.5,
        "baseColorFactor": [1, 1, 1, 0.300000012]
      }
    }
  ],
  "nodes": [
    {
      "children": [ 1, 2, 3 ],
      "matrix": [1, 0, 0, 0, 0, 0, -1, 0, 0, 1, 0, 0, 0, 0, 0, 1]
    },
    {
      "mesh": 0,
      "name": "Frame"
    },
    {
      "mesh": 1,
      "name": "Door"
    },
    {
      "mesh": 2,
      "name": "Glass"
    }
  ],
  "scenes": [
    {
      "nodes": [ 0 ]
    }
  ]
}
