{
  "accessors": [
    {
      "bufferView": 0,
      "componentType": 5126,
      "type": "VEC3",
      "count": 418,
      "min": [-10, -1, 0],
      "max": [10, 2, 28]
    },
    {
      "bufferView": 0,
      "componentType": 5126,
      "type": "VEC3",
      "byteOffset": 12,
      "count": 418
    },
    {
      "bufferView": 0,
      "componentType": 5126,
      "type": "VEC4",
      "byteOffset": 24,
      "count": 418
    },
    {
      "bufferView": 1,
      "componentType": 5125,
      "type": "SCALAR",
      "count": 846
    },
    {
      "bufferView": 2,
      "componentType": 5126,
      "type": "VEC3",
      "count": 88,
      "min": [-3, 0, 10],
      "max": [3, 1, 19]
    },
    {
      "bufferView": 2,
      "componentType": 5126,
      "type": "VEC3",
      "byteOffset": 12,
      "count": 88
    },
    {
      "bufferView": 2,
      "componentType": 5126,
      "type": "VEC4",
      "byteOffset": 24,
      "count": 88
    },
    {
      "bufferView": 3,
      "componentType": 5125,
      "type": "SCALAR",
      "count": 180
    }
  ],
  "asset": {
    "generator": "goxel",
    "version": "2.0"
  },
  "bufferViews": [
    {
      "buffer": 0,
      "byteLength": 16720,
      "byteStride": 40
    },
    {
      "buffer": 1,
      "byteLength": 3384
    },
    {
      "buffer": 2,
      "byteLength": 3520,
      "byteStride": 40
    },
    {
      "buffer": 3,
      "byteLength": 720
    }
  ],
  "buffers": [
    {
      "uri": "data:application/octet-stream;base64,",
      "byteLength": 16720
    },
    {
      "uri": "data:application/octet-stream;base64,",
      "byteLength": 3384
    },
    {
      "uri": "data:application/octet-stream;base64,",
      "byteLength": 3520
    },
    {
      "uri": "data:application/octet-stream;base64,",
      "byteLength": 720
    }
  ],
  "meshes": [
    {
      "primitives": [
        {
          "indices": 3,
          "material": 0,
          "attributes": {
            "POSITION": 0,
            "NORMAL": 1,
            "COLOR_0": 2
          }
        }
      ]
    },
    {
      "primitives": [
        {
          "indices": 7,
          "material": 1,
          "attributes": {
            "POSITION": 4,
            "NORMAL": 5,
            "COLOR_0": 6
          }
        }
      ]
    }
  ],
  "materials": [
    {
      "name": "Metal",
      "pbrMetallicRoughness": {
        "metallicFactor": 0.200000003,
        "roughnessFactor": 0.5
      }
    },
    {
      "name": "Glass",
      "pbrMetallicRoughness": {
        "metallicFactor": 0.200000003,
        "roughnessFactor": 0.5,
        "baseColorFactor": [1, 1, 1, 0.300000012]
      }
    }
  ],
  "nodes": [
    {
      "children": [ 1, 2 ],
      "matrix": [1, 0, 0, 0, 0, 0, -1, 0, 0, 1, 0, 0, 0, 0, 0, 1]
    },
    {
      "mesh": 0,
      "name": "Layer.1"
    },
    {
      "mesh": 1,
      "name": "Layer.2"
    }
  ],
  "scenes": [
    {
      "nodes": [ 0 ]
    }
  ]
}
