{
  "accessors": [
    {
      "bufferView": 0,
      "componentType": 5126,
      "type": "VEC3",
      "count": 1743,
      "min": [-10, -1, 0],
      "max": [10, 2, 28]
    },
    {
      "bufferView": 0,
      "componentType": 5126,
      "type": "VEC3",
      "byteOffset": 12,
      "count": 1743
    },
    {
      "bufferView": 0,
      "componentType": 5126,
      "type": "VEC4",
      "byteOffset": 24,
      "count": 1743
    },
    {
      "bufferView": 1,
      "componentType": 5125,
      "type": "SCALAR",
      "count": 8196
    },
    {
      "bufferView": 2,
      "componentType": 5126,
      "type": "VEC3",
      "count": 259,
      "min": [-4, 1, 5],
      "max": [4, 3, 11]
    },
    {
      "bufferView": 2,
      "componentType": 5126,
      "type": "VEC3",
      "byteOffset": 12,
      "count": 259
    },
    {
      "bufferView": 2,
      "componentType": 5126,
      "type": "VEC4",
      "byteOffset": 24,
      "count": 259
    },
    {
      "bufferView": 3,
      "componentType": 5125,
      "type": "SCALAR",
      "count": 900
    },
    {
      "bufferView": 4,
      "componentType": 5126,
      "type": "VEC3",
      "count": 118,
      "min": [5, 1, 11],
      "max": [7, 3, 17]
    },
    {
      "bufferView": 4,
      "componentType": 5126,
      "type": "VEC3",
      "byteOffset": 12,
      "count": 118
    },
    {
      "bufferView": 4,
      "componentType": 5126,
      "type": "VEC4",
      "byteOffset": 24,
      "count": 118
    },
    {
      "bufferView": 5,
      "componentType": 5125,
      "type": "SCALAR",
      "count": 336
    }
  ],
  "asset": {
    "generator": "goxel",
    "version": "2.0"
  },
  "bufferViews": [
    {
      "buffer": 0,
      "byteLength": 69720,
      "byteStride": 40
    },
    {
      "buffer": 1,
      "byteLength": 32784
    },
    {
      "buffer": 2,
      "byteLength": 10360,
      "byteStride": 40
    },
    {
      "buffer": 3,
      "byteLength": 3600
    },
    {
      "buffer": 4,
      "byteLength": 4720,
      "byteStride": 40
    },
    {
      "buffer": 5,
      "byteLength": 1344
    }
  ],
  "buffers": [
    {
      "uri": "data:application/octet-stream;base64,",
      "byteLength": 69720
    },
    {
      "uri": "data:application/octet-stream;base64,",
      "byteLength": 32784
    },
    {
      "uri": "data:application/octet-stream;base64,",
      "byteLength": 10360
    },
    {
      "uri": "data:application/octet-stream;base64,",
      "byteLength": 3600
    },
    {
      "uri": "data:application/octet-stream;base64,",
      "byteLength": 4720
    },
    {
      "uri": "data:application/octet-stream;base64,",
      "byteLength": 1344
    }
  ],
  "meshes": [
    {
      "primitives": [
        {
          "indices": 3,
          "material": 0,
          "attributes": {
            "POSITION": 0,
            "NORMAL": 1,
            "COLOR_0": 2
          }
        }
      ]
    },
    {
      "primitives": [
        {
          "indices": 7,
          "material": 0,
          "attributes": {
            "POSITION": 4,
            "NORMAL": 5,
            "COLOR_0": 6
          }
        }
      ]
    },
    {
      "primitives": [
        {
          "indices": 11,
          "material": 1,
          "attributes": {
            "POSITION": 8,
            "NORMAL": 9,
            "COLOR_0": 10
          }
        }
      ]
    }
  ],
  "materials": [
    {
      "name": "Metal",
      "pbrMetallicRoughness": {
        "metallicFactor": 0.200000003,
        "roughnessFactor": 0.5
      }
    },
    {
      "name": "",
      "pbrMetallicRoughness": {
      }
    }
  ],
  "nodes": [
    {
      "children": [ 1, 2, 3 ],
      "matrix": [1, 0, 0, 0, 0, 0, -1, 0, 0, 1, 0, 0, 0, 0, 0, 1]
    },
    {
      "mesh": 0,
      "name": "Base"
    },
    {
      "mesh": 1,
      "name": "UnfoldableChair"
    },
    {
      "mesh": 2,
      "name": "Phone"
    }
  ],
  "scenes": [
    {
      "nodes": [ 0 ]
    }
  ]
}
