{
  "accessors": [
    {
      "bufferView": 0,
      "componentType": 5126,
      "type": "VEC3",
      "count": 1871,
      "min": [-10, 1, 0],
      "max": [10, 10, 13]
    },
    {
      "bufferView": 0,
      "componentType": 5126,
      "type": "VEC3",
      "byteOffset": 12,
      "count": 1871
    },
    {
      "bufferView": 0,
      "componentType": 5126,
      "type": "VEC4",
      "byteOffset": 24,
      "count": 1871
    },
    {
      "bufferView": 1,
      "componentType": 5125,
      "type": "SCALAR",
      "count": 8580
    }
  ],
  "asset": {
    "generator": "goxel",
    "version": "2.0"
  },
  "bufferViews": [
    {
      "buffer": 0,
      "byteLength": 74840,
      "byteStride": 40
    },
    {
      "buffer": 1,
      "byteLength": 34320
    }
  ],
  "buffers": [
    {
      "uri": "data:application/octet-stream;base64,",
      "byteLength": 74840
    },
    {
      "uri": "data:application/octet-stream;base64,",
      "byteLength": 34320
    }
  ],
  "meshes": [
    {
      "primitives": [
        {
          "indices": 3,
          "material": 1,
          "attributes": {
            "POSITION": 0,
            "NORMAL": 1,
            "COLOR_0": 2
          }
        }
      ]
    }
  ],
  "materials": [
    {
      "name": "Glass",
      "pbrMetallicRoughness": {
        "metallicFactor": 0.200000003,
        "roughnessFactor": 0.5,
        "baseColorFactor": [1, 1, 1, 0.300000012]
      }
    },
    {
      "name": "",
      "pbrMetallicRoughness": {
      }
    }
  ],
  "nodes": [
    {
      "children": [ 1 ],
      "matrix": [1, 0, 0, 0, 0, 0, -1, 0, 0, 1, 0, 0, 0, 0, 0, 1]
    },
    {
      "mesh": 0,
      "name": "Layer.1"
    }
  ],
  "scenes": [
    {
      "nodes": [ 0 ]
    }
  ]
}
